<svg width="20" height="20" viewBox="0 0 20 20" fill="none" xmlns="http://www.w3.org/2000/svg">
<g clip-path="url(#clip0_135_4005)">
<path fill-rule="evenodd" clip-rule="evenodd" d="M7.78637 0.248712C9.16418 -0.0640542 10.5926 -0.0813071 11.9776 0.19809C13.3625 0.477486 14.6726 1.04719 15.8214 1.86966C16.9702 2.69214 17.9316 3.74871 18.6424 4.96975C19.3532 6.1908 19.7972 7.54861 19.9451 8.95371C19.9711 9.20103 19.8979 9.44855 19.7414 9.64183C19.5849 9.83511 19.3581 9.95831 19.1107 9.98434C18.8634 10.0104 18.6159 9.93707 18.4226 9.7806C18.2293 9.62412 18.1061 9.39728 18.0801 9.14996C17.9194 7.62324 17.3295 6.17328 16.3787 4.96804C15.4278 3.76279 14.155 2.85158 12.7076 2.33995C11.2602 1.82833 9.6975 1.73721 8.20047 2.07717C6.70343 2.41714 5.33333 3.17426 4.24888 4.26084C3.16442 5.34742 2.40999 6.719 2.07297 8.2167C1.73594 9.7144 1.83012 11.2769 2.34459 12.7233C2.85905 14.1697 3.77276 15.4407 4.97986 16.3892C6.18697 17.3377 7.63808 17.9248 9.16512 18.0825C9.28848 18.094 9.40833 18.1298 9.51776 18.1879C9.62718 18.246 9.724 18.3252 9.80263 18.421C9.88125 18.5167 9.94011 18.6271 9.97582 18.7458C10.0115 18.8644 10.0234 18.9889 10.0106 19.1122C9.99791 19.2354 9.96089 19.3549 9.90171 19.4637C9.84252 19.5726 9.76235 19.6686 9.66583 19.7463C9.56931 19.824 9.45834 19.8817 9.33936 19.9163C9.22037 19.9508 9.09572 19.9614 8.97262 19.9475C6.61376 19.7048 4.41791 18.6317 2.777 16.9198C1.13609 15.208 0.156904 12.9687 0.0142222 10.6017C-0.128459 8.23466 0.574647 5.89397 1.99804 3.99739C3.42144 2.1008 5.4725 0.771755 7.78512 0.247462L7.78637 0.248712ZM10.0001 3.74996C10.2488 3.74996 10.4872 3.84873 10.663 4.02455C10.8388 4.20036 10.9376 4.43882 10.9376 4.68746V11.25H5.93762C5.68898 11.25 5.45052 11.1512 5.2747 10.9754C5.09889 10.7996 5.00012 10.5611 5.00012 10.3125C5.00012 10.0638 5.09889 9.82536 5.2747 9.64955C5.45052 9.47373 5.68898 9.37496 5.93762 9.37496H9.06262V4.68746C9.06262 4.43882 9.16139 4.20036 9.3372 4.02455C9.51302 3.84873 9.75148 3.74996 10.0001 3.74996ZM12.7751 12.775C12.9509 12.5994 13.1892 12.5008 13.4376 12.5008C13.6861 12.5008 13.9243 12.5994 14.1001 12.775L16.2501 14.925L18.4001 12.775C18.4859 12.6829 18.5894 12.609 18.7044 12.5577C18.8194 12.5065 18.9436 12.4789 19.0695 12.4767C19.1953 12.4745 19.3204 12.4977 19.4371 12.5448C19.5538 12.592 19.6599 12.6621 19.7489 12.7512C19.8379 12.8402 19.9081 12.9462 19.9553 13.063C20.0024 13.1797 20.0256 13.3047 20.0234 13.4306C20.0211 13.5565 19.9936 13.6806 19.9423 13.7956C19.8911 13.9106 19.8172 14.0141 19.7251 14.1L17.5751 16.25L19.7251 18.4C19.8172 18.4858 19.8911 18.5893 19.9423 18.7043C19.9936 18.8193 20.0211 18.9434 20.0234 19.0693C20.0256 19.1952 20.0024 19.3202 19.9553 19.437C19.9081 19.5537 19.8379 19.6597 19.7489 19.7488C19.6599 19.8378 19.5538 19.908 19.4371 19.9551C19.3204 20.0023 19.1953 20.0254 19.0695 20.0232C18.9436 20.021 18.8194 19.9934 18.7044 19.9422C18.5894 19.8909 18.4859 19.8171 18.4001 19.725L16.2501 17.575L14.1001 19.725C14.0143 19.8171 13.9108 19.8909 13.7958 19.9422C13.6808 19.9934 13.5566 20.021 13.4308 20.0232C13.3049 20.0254 13.1799 20.0023 13.0631 19.9551C12.9464 19.908 12.8403 19.8378 12.7513 19.7488C12.6623 19.6597 12.5921 19.5537 12.545 19.437C12.4978 19.3202 12.4747 19.1952 12.4769 19.0693C12.4791 18.9434 12.5066 18.8193 12.5579 18.7043C12.6091 18.5893 12.683 18.4858 12.7751 18.4L14.9251 16.25L12.7751 14.1C12.5996 13.9242 12.5009 13.6859 12.5009 13.4375C12.5009 13.189 12.5996 12.9507 12.7751 12.775Z" fill="#0043FF"/>
</g>
<defs>
<clipPath id="clip0_135_4005">
<rect width="20" height="20" fill="white"/>
</clipPath>
</defs>
</svg>
