<svg width="20" height="20" viewBox="0 0 20 20" fill="none" xmlns="http://www.w3.org/2000/svg">
<path fill-rule="evenodd" clip-rule="evenodd" d="M10 0C4.47715 0 0 4.47715 0 10C0 15.5228 4.47715 20 10 20C15.5228 20 20 15.5228 20 10C20 4.47715 15.5228 0 10 0ZM2 10C2 14.4183 5.58172 18 10 18C14.4183 18 18 14.4183 18 10C18 5.58172 14.4183 2 10 2C5.58172 2 2 5.58172 2 10Z" fill="#A1A1A1"/>
<path d="M9.18906 14.6791C9.18906 14.2257 9.55658 13.8582 10.01 13.8582C10.4633 13.8582 10.8308 14.2257 10.8308 14.6791C10.8308 15.1325 10.4633 15.5 10.01 15.5C9.55658 15.5 9.18906 15.1325 9.18906 14.6791ZM10.2836 4.5C13.2388 4.6204 14.5194 7.59751 12.7791 9.8194C12.3194 10.3667 11.5861 10.7279 11.2139 11.1985C11.0241 11.4318 10.9283 11.6839 10.88 11.9455C10.7977 12.3913 10.4633 12.7637 10.01 12.7637C9.55658 12.7637 9.18031 12.3958 9.20056 11.9429C9.22606 11.3725 9.30812 10.8861 9.57214 10.509C9.93334 9.96169 10.6667 9.63333 11.1264 9.27214C12.4726 8.03532 12.1224 6.29503 10.2836 6.15274C9.66543 6.15274 9.11997 6.5006 8.84029 7.01754C8.62456 7.41629 8.27426 7.80547 7.8209 7.80547C7.36753 7.80547 6.98956 7.43233 7.10026 6.99269C7.4613 5.55886 8.75479 4.5 10.2836 4.5Z" fill="#A1A1A1"/>
</svg>